<?xml version="1.0" standalone="no"?><svg xmlns="http://www.w3.org/2000/svg" viewBox="0 0 1440 320"><path fill="#f43f5e" fill-opacity="1" d="M0,32L34.3,58.7C68.6,85,137,139,206,176C274.3,213,343,235,411,218.7C480,203,549,149,617,160C685.7,171,754,245,823,266.7C891.4,288,960,256,1029,218.7C1097.1,181,1166,139,1234,149.3C1302.9,160,1371,224,1406,256L1440,288L1440,320L1405.7,320C1371.4,320,1303,320,1234,320C1165.7,320,1097,320,1029,320C960,320,891,320,823,320C754.3,320,686,320,617,320C548.6,320,480,320,411,320C342.9,320,274,320,206,320C137.1,320,69,320,34,320L0,320Z"></path></svg>